<?xml version="1.0" encoding="utf-8"?>
<!-- Generator: Adobe Illustrator 22.0.1, SVG Export Plug-In . SVG Version: 6.00 Build 0)  -->
<svg version="1.1"  width="1000" id="Layer1" xmlns="http://www.w3.org/2000/svg" xmlns:xlink="http://www.w3.org/1999/xlink" x="0px" y="0px"
	 viewBox="0 0 361.699 60.945" style="enable-background:new 0 0 361.699 60.945;" xml:space="preserve">
<style type="text/css">
	.st0{fill:none;}
	.st1{fill:#BF0000;}
</style>
<g>
	<path class="st0" d="M2.835,60.945C1.276,60.945,0,59.669,0,58.11V2.835C0,1.276,1.276,0,2.835,0h356.03
		c1.559,0,2.835,1.276,2.835,2.835V58.11c0,1.559-1.276,2.835-2.835,2.835H2.835z"/>
	<g>
		<rect x="14.173" y="14.173" class="st0" width="333.353" height="32.598"/>
		<g>
			<g>
				<polygon class="st1" points="125.444,46.772 41.818,46.772 48.479,53.433 				"/>
				<path class="st1" d="M49.565,19.828v1.007c-1.553-0.989-2.945-1.564-4.852-1.564c-5.859,0-10.309,5.342-10.309,11.904
					c0,6.563,4.451,11.902,10.309,11.902c1.907,0,3.299-0.573,4.852-1.564v1.006h5.15V19.828H49.565z M44.712,37.613
					c-2.889,0-5.004-2.845-5.004-6.438c0-3.591,2.115-6.436,5.004-6.436c2.892,0,4.931,2.845,4.931,6.436
					C49.643,34.768,47.605,37.613,44.712,37.613z"/>
				<path class="st1" d="M90.82,19.828v13.33c0,2.5-1.718,4.612-4.22,4.612c-2.5,0-4.219-2.112-4.219-4.612v-13.33h-5.15v13.33
					c0,5.47,3.742,9.919,9.212,9.919c2.533,0,4.377-1.401,4.377-1.401v0.844h5.15V19.828H90.82z"/>
				<path class="st1" d="M138.807,42.52V29.19c0-2.5,1.718-4.612,4.22-4.612c2.5,0,4.219,2.112,4.219,4.612v13.33h5.15V29.19
					c0-5.469-3.742-9.919-9.212-9.919c-2.533,0-4.377,1.401-4.377,1.401v-0.844h-5.15V42.52H138.807z"/>
				<path class="st1" d="M19.559,42.52v-8.791h3.81l6.596,8.791h6.743l-7.97-10.608c2.484-1.783,4.115-4.682,4.115-7.966
					c0-5.393-4.385-9.773-9.778-9.773h-8.901V42.52H19.559z M19.559,19.555h3.515c2.419,0,4.397,1.968,4.397,4.391
					c0,2.43-1.978,4.396-4.397,4.396h-3.515V19.555z"/>
				<path class="st1" d="M109.85,37.15c-0.463,0.314-1.046,0.558-1.722,0.558c-0.841,0-2.428-0.643-2.428-2.784v-9.711h4.404v-5.386
					H105.7l0-5.655h-5.15l0,5.655h-2.724v5.386h2.724v9.789c-0.001,5.067,3.816,8.093,7.657,8.093c1.431,0,3.417-0.469,5.038-1.428
					L109.85,37.15z"/>
				<polygon class="st1" points="67.518,30.465 76.352,19.828 69.133,19.828 62.954,27.733 62.954,12.299 57.651,12.299 
					57.651,42.52 62.954,42.52 62.954,33.198 70.55,42.52 77.766,42.52 				"/>
				<path class="st1" d="M121.746,19.252c-5.961,0-10.236,5.238-10.236,11.922c0,7.028,5.367,11.923,10.748,11.923
					c2.716,0,6.197-0.931,9.121-5.08l-4.549-2.627c-3.518,5.186-9.381,2.554-10.058-2.632l14.835,0.003
					C132.876,24.612,127.606,19.252,121.746,19.252z M126.242,28.245h-9.276C118.05,22.93,125.238,22.625,126.242,28.245z"/>
			</g>
			<g>
				<path class="st1" d="M169.694,15.59c7.049,0,12.147,5.646,12.147,13.448c0,7.973-4.962,13.482-12.147,13.482H160.9V15.59
					H169.694z M166.033,37.729h3.661c3.969,0,6.672-3.524,6.672-8.691c0-5.133-2.703-8.657-6.672-8.657h-3.661V37.729z"/>
				<path class="st1" d="M202.777,38.242c-2.429,3.319-5.167,4.825-8.76,4.825c-6.193,0-10.641-4.722-10.641-11.292
					c0-6.433,4.346-11.36,9.957-11.36c5.543,0,9.957,5.03,9.957,11.257c0,0.548-0.034,1.027-0.102,1.574h-14.132
					c0.342,3.045,2.293,4.927,5.098,4.927c1.54,0,2.943-0.855,4.175-2.498L202.777,38.242z M197.507,28.867
					c-0.513-2.566-1.95-3.901-4.14-3.901c-2.087,0-3.661,1.437-4.208,3.901H197.507z"/>
				<path class="st1" d="M215.678,42.52h-5.68l-7.219-21.557h5.851l4.209,14.406l4.209-14.406h5.851L215.678,42.52z"/>
				<path class="st1" d="M241.787,38.242c-2.43,3.319-5.167,4.825-8.76,4.825c-6.193,0-10.641-4.722-10.641-11.292
					c0-6.433,4.346-11.36,9.957-11.36c5.543,0,9.957,5.03,9.957,11.257c0,0.548-0.034,1.027-0.103,1.574h-14.132
					c0.342,3.045,2.292,4.927,5.098,4.927c1.54,0,2.943-0.855,4.175-2.498L241.787,38.242z M236.518,28.867
					c-0.514-2.566-1.951-3.901-4.141-3.901c-2.087,0-3.661,1.437-4.209,3.901H236.518z"/>
				<path class="st1" d="M244.348,42.52V13.811h5.543V42.52H244.348z"/>
				<path class="st1" d="M272.382,31.741c0,6.57-4.243,11.326-10.094,11.326c-5.851,0-10.094-4.756-10.094-11.326
					c0-6.57,4.243-11.292,10.128-11.292C268.139,20.449,272.382,25.206,272.382,31.741z M257.292,31.775
					c0,3.524,2.121,6.159,4.996,6.159c2.875,0,4.996-2.635,4.996-6.193c0-3.558-2.122-6.193-5.03-6.193
					C259.413,25.548,257.292,28.217,257.292,31.775z"/>
				<path class="st1" d="M279.689,22.947c1.266-1.642,2.943-2.498,5.03-2.498c5.543,0,10.06,5.098,10.06,11.326
					c0,6.262-4.38,11.292-9.855,11.292c-1.984,0-3.73-0.753-5.235-2.224v7.117h-5.133V20.962h4.448L279.689,22.947z M279.689,31.741
					c0,3.832,2.053,6.536,4.962,6.536c2.772,0,4.996-2.908,4.996-6.501c0-3.661-2.19-6.536-4.996-6.536
					C281.777,25.24,279.689,27.977,279.689,31.741z"/>
				<path class="st1" d="M315.716,38.242c-2.43,3.319-5.167,4.825-8.76,4.825c-6.194,0-10.642-4.722-10.642-11.292
					c0-6.433,4.346-11.36,9.957-11.36c5.543,0,9.957,5.03,9.957,11.257c0,0.548-0.034,1.027-0.103,1.574h-14.132
					c0.342,3.045,2.293,4.927,5.099,4.927c1.539,0,2.943-0.855,4.175-2.498L315.716,38.242z M310.446,28.867
					c-0.513-2.566-1.951-3.901-4.141-3.901c-2.087,0-3.661,1.437-4.209,3.901H310.446z"/>
				<path class="st1" d="M322.862,22.947c1.368-1.608,3.627-2.498,6.262-2.498v4.79c-2.43,0.171-3.798,0.855-4.825,2.361
					c-0.582,0.89-0.89,1.95-0.89,3.114V42.52h-5.132V20.962h4.106L322.862,22.947z"/>
				<path class="st1" d="M343.351,27.396c-1.505-1.506-2.84-2.156-4.311-2.156c-1.437,0-2.395,0.684-2.395,1.78
					c0,0.992,0.65,1.574,2.19,2.019c2.601,0.719,4.141,1.3,5.27,1.916c2.292,1.3,3.422,3.079,3.422,5.372
					c0,4.037-3.422,6.741-8.486,6.741c-3.866,0-6.707-1.403-8.76-4.346l3.456-3.285c1.301,1.848,3.182,2.84,5.372,2.84
					c1.882,0,2.942-0.684,2.942-1.916c0-1.129-0.787-1.677-4.003-2.772c-2.806-0.958-3.593-1.3-4.551-2.019
					c-1.574-1.095-2.327-2.601-2.327-4.551c0-3.764,3.353-6.57,7.87-6.57c2.874,0,5.269,0.958,7.665,3.079L343.351,27.396z"/>
			</g>
		</g>
	</g>
</g>
</svg>
